<svg width="20" height="21" viewBox="0 0 20 21" fill="none" xmlns="http://www.w3.org/2000/svg">
<path d="M11.6666 2.16663H4.99992C4.55789 2.16663 4.13397 2.34222 3.82141 2.65478C3.50885 2.96734 3.33325 3.39127 3.33325 3.83329V17.1666C3.33325 17.6087 3.50885 18.0326 3.82141 18.3451C4.13397 18.6577 4.55789 18.8333 4.99992 18.8333H14.9999C15.4419 18.8333 15.8659 18.6577 16.1784 18.3451C16.491 18.0326 16.6666 17.6087 16.6666 17.1666V7.16663L11.6666 2.16663Z" stroke="black" stroke-linecap="round" stroke-linejoin="round"/>
<path d="M13.3334 14.6666H6.66675" stroke="black" stroke-linecap="round" stroke-linejoin="round"/>
<path d="M13.3334 11.3334H6.66675" stroke="black" stroke-linecap="round" stroke-linejoin="round"/>
<path d="M8.33341 8H7.50008H6.66675" stroke="black" stroke-linecap="round" stroke-linejoin="round"/>
<path d="M11.6667 2.16663V7.16663H16.6667" stroke="black" stroke-linecap="round" stroke-linejoin="round"/>
</svg>
