<svg width="22" height="22" viewBox="0 0 22 22" fill="none" xmlns="http://www.w3.org/2000/svg">
<path d="M19.25 6.1875H7.5625C7.38016 6.1875 7.2053 6.11507 7.07636 5.98614C6.94743 5.8572 6.875 5.68234 6.875 5.5C6.875 5.31766 6.94743 5.1428 7.07636 5.01386C7.2053 4.88493 7.38016 4.8125 7.5625 4.8125H19.25C19.4323 4.8125 19.6072 4.88493 19.7361 5.01386C19.8651 5.1428 19.9375 5.31766 19.9375 5.5C19.9375 5.68234 19.8651 5.8572 19.7361 5.98614C19.6072 6.11507 19.4323 6.1875 19.25 6.1875Z" fill="white"/>
<path d="M4.8125 6.1875H2.75C2.56766 6.1875 2.3928 6.11507 2.26386 5.98614C2.13493 5.8572 2.0625 5.68234 2.0625 5.5C2.0625 5.31766 2.13493 5.1428 2.26386 5.01386C2.3928 4.88493 2.56766 4.8125 2.75 4.8125H4.8125C4.99484 4.8125 5.1697 4.88493 5.29864 5.01386C5.42757 5.1428 5.5 5.31766 5.5 5.5C5.5 5.68234 5.42757 5.8572 5.29864 5.98614C5.1697 6.11507 4.99484 6.1875 4.8125 6.1875Z" fill="white"/>
<path d="M14.4375 11.6875H2.75C2.56766 11.6875 2.3928 11.6151 2.26386 11.4861C2.13493 11.3572 2.0625 11.1823 2.0625 11C2.0625 10.8177 2.13493 10.6428 2.26386 10.5139C2.3928 10.3849 2.56766 10.3125 2.75 10.3125H14.4375C14.6198 10.3125 14.7947 10.3849 14.9236 10.5139C15.0526 10.6428 15.125 10.8177 15.125 11C15.125 11.1823 15.0526 11.3572 14.9236 11.4861C14.7947 11.6151 14.6198 11.6875 14.4375 11.6875Z" fill="white"/>
<path d="M7.5625 17.1875H2.75C2.56766 17.1875 2.3928 17.1151 2.26386 16.9861C2.13493 16.8572 2.0625 16.6823 2.0625 16.5C2.0625 16.3177 2.13493 16.1428 2.26386 16.0139C2.3928 15.8849 2.56766 15.8125 2.75 15.8125H7.5625C7.74484 15.8125 7.9197 15.8849 8.04864 16.0139C8.17757 16.1428 8.25 16.3177 8.25 16.5C8.25 16.6823 8.17757 16.8572 8.04864 16.9861C7.9197 17.1151 7.74484 17.1875 7.5625 17.1875Z" fill="white"/>
<path d="M6.1875 7.5625C5.77958 7.5625 5.38081 7.44154 5.04164 7.21491C4.70246 6.98828 4.43811 6.66616 4.282 6.28929C4.12589 5.91241 4.08505 5.49771 4.16463 5.09763C4.24421 4.69754 4.44065 4.33004 4.72909 4.04159C5.01754 3.75315 5.38504 3.55671 5.78513 3.47713C6.18521 3.39755 6.59991 3.43839 6.97679 3.5945C7.35366 3.75061 7.67578 4.01496 7.90241 4.35414C8.12904 4.69331 8.25 5.09208 8.25 5.5C8.25 6.04701 8.0327 6.57161 7.64591 6.95841C7.25912 7.3452 6.73451 7.5625 6.1875 7.5625ZM6.1875 4.8125C6.05153 4.8125 5.9186 4.85282 5.80555 4.92837C5.69249 5.00391 5.60437 5.11128 5.55233 5.23691C5.5003 5.36253 5.48668 5.50076 5.51321 5.63413C5.53974 5.76749 5.60522 5.88999 5.70137 5.98614C5.79751 6.08229 5.92001 6.14776 6.05338 6.17429C6.18674 6.20082 6.32497 6.1872 6.4506 6.13517C6.57622 6.08313 6.68359 5.99501 6.75914 5.88196C6.83468 5.7689 6.875 5.63598 6.875 5.5C6.875 5.31766 6.80257 5.1428 6.67364 5.01386C6.54471 4.88493 6.36984 4.8125 6.1875 4.8125Z" fill="white"/>
<path d="M15.8125 13.0625C15.4046 13.0625 15.0058 12.9415 14.6666 12.7149C14.3275 12.4883 14.0631 12.1662 13.907 11.7893C13.7509 11.4124 13.71 10.9977 13.7896 10.5976C13.8692 10.1975 14.0656 9.83004 14.3541 9.54159C14.6425 9.25315 15.01 9.05671 15.4101 8.97713C15.8102 8.89755 16.2249 8.93839 16.6018 9.0945C16.9787 9.25061 17.3008 9.51496 17.5274 9.85414C17.754 10.1933 17.875 10.5921 17.875 11C17.875 11.547 17.6577 12.0716 17.2709 12.4584C16.8841 12.8452 16.3595 13.0625 15.8125 13.0625ZM15.8125 10.3125C15.6765 10.3125 15.5436 10.3528 15.4305 10.4284C15.3175 10.5039 15.2294 10.6113 15.1773 10.7369C15.1253 10.8625 15.1117 11.0008 15.1382 11.1341C15.1647 11.2675 15.2302 11.39 15.3264 11.4861C15.4225 11.5823 15.545 11.6478 15.6784 11.6743C15.8117 11.7008 15.95 11.6872 16.0756 11.6352C16.2012 11.5831 16.3086 11.495 16.3841 11.382C16.4597 11.2689 16.5 11.136 16.5 11C16.5 10.8177 16.4276 10.6428 16.2986 10.5139C16.1697 10.3849 15.9948 10.3125 15.8125 10.3125Z" fill="white"/>
<path d="M8.9375 18.5625C8.52958 18.5625 8.13081 18.4415 7.79164 18.2149C7.45246 17.9883 7.18811 17.6662 7.032 17.2893C6.87589 16.9124 6.83505 16.4977 6.91463 16.0976C6.99421 15.6975 7.19065 15.33 7.47909 15.0416C7.76754 14.7531 8.13504 14.5567 8.53513 14.4771C8.93521 14.3975 9.34991 14.4384 9.72679 14.5945C10.1037 14.7506 10.4258 15.015 10.6524 15.3541C10.879 15.6933 11 16.0921 11 16.5C11 17.047 10.7827 17.5716 10.3959 17.9584C10.0091 18.3452 9.48451 18.5625 8.9375 18.5625ZM8.9375 15.8125C8.80153 15.8125 8.66861 15.8528 8.55555 15.9284C8.44249 16.0039 8.35437 16.1113 8.30233 16.2369C8.2503 16.3625 8.23668 16.5008 8.26321 16.6341C8.28974 16.7675 8.35522 16.89 8.45137 16.9861C8.54751 17.0823 8.67001 17.1478 8.80338 17.1743C8.93674 17.2008 9.07497 17.1872 9.2006 17.1352C9.32622 17.0831 9.43359 16.995 9.50914 16.882C9.58468 16.7689 9.625 16.636 9.625 16.5C9.625 16.3177 9.55257 16.1428 9.42364 16.0139C9.29471 15.8849 9.11984 15.8125 8.9375 15.8125Z" fill="white"/>
<path d="M19.25 11.6875H17.1875C17.0052 11.6875 16.8303 11.6151 16.7014 11.4861C16.5724 11.3572 16.5 11.1823 16.5 11C16.5 10.8177 16.5724 10.6428 16.7014 10.5139C16.8303 10.3849 17.0052 10.3125 17.1875 10.3125H19.25C19.4323 10.3125 19.6072 10.3849 19.7361 10.5139C19.8651 10.6428 19.9375 10.8177 19.9375 11C19.9375 11.1823 19.8651 11.3572 19.7361 11.4861C19.6072 11.6151 19.4323 11.6875 19.25 11.6875Z" fill="white"/>
<path d="M19.25 17.1875H10.3125C10.1302 17.1875 9.9553 17.1151 9.82636 16.9861C9.69743 16.8572 9.625 16.6823 9.625 16.5C9.625 16.3177 9.69743 16.1428 9.82636 16.0139C9.9553 15.8849 10.1302 15.8125 10.3125 15.8125H19.25C19.4323 15.8125 19.6072 15.8849 19.7361 16.0139C19.8651 16.1428 19.9375 16.3177 19.9375 16.5C19.9375 16.6823 19.8651 16.8572 19.7361 16.9861C19.6072 17.1151 19.4323 17.1875 19.25 17.1875Z" fill="white"/>
</svg>
