<svg width="25" height="26" viewBox="0 0 25 26" fill="none" xmlns="http://www.w3.org/2000/svg">
<g clip-path="url(#clip0_254_7846)">
<path d="M24.6995 13.0626C24.6995 12.2453 24.6271 11.4693 24.5029 10.714H12.8115V15.3802H19.5056C19.2056 16.9115 18.3261 18.2048 17.0225 19.0842V22.1881H21.0162C23.3545 20.0257 24.6995 16.8391 24.6995 13.0626Z" fill="#4285F4"/>
<path d="M12.8115 25.1989C16.1637 25.1989 18.9676 24.0815 21.0161 22.1881L17.0224 19.0842C15.905 19.8292 14.4876 20.2844 12.8115 20.2844C9.57303 20.2844 6.83124 18.1013 5.84833 15.1526H1.73047V18.3496C3.76871 22.4054 7.95899 25.1989 12.8115 25.1989Z" fill="#34A853"/>
<path d="M5.84805 15.1525C5.58939 14.4075 5.45489 13.6109 5.45489 12.7831C5.45489 11.9554 5.59974 11.1588 5.84805 10.4138V7.2168H1.73019C0.881787 8.89291 0.395508 10.776 0.395508 12.7831C0.395508 14.7903 0.881787 16.6734 1.73019 18.3495L5.84805 15.1525Z" fill="#FBBC05"/>
<path d="M12.8115 5.28209C14.6428 5.28209 16.2775 5.91322 17.5708 7.14444L21.1092 3.60597C18.9675 1.59877 16.1637 0.367554 12.8115 0.367554C7.95899 0.367554 3.76871 3.16108 1.73047 7.21686L5.84833 10.4139C6.83124 7.46518 9.57303 5.28209 12.8115 5.28209Z" fill="#EA4335"/>
</g>
<defs>
<clipPath id="clip0_254_7846">
<rect width="24.8313" height="24.8313" fill="white" transform="translate(0.129883 0.367554)"/>
</clipPath>
</defs>
</svg>
