<svg width="35" height="35" viewBox="0 0 35 35" fill="none" xmlns="http://www.w3.org/2000/svg">
<path d="M8.1471 11.26H1.12079C0.808952 11.26 0.556274 11.5128 0.556274 11.8245V34.397C0.556274 34.7089 0.808952 34.9616 1.12079 34.9616H8.1471C8.45894 34.9616 8.71161 34.7089 8.71161 34.397V11.8245C8.71161 11.5128 8.45894 11.26 8.1471 11.26Z" fill="#797979"/>
<path d="M4.63648 0.0385742C2.0799 0.0385742 0 2.11622 0 4.66998C0 7.22486 2.0799 9.3033 4.63648 9.3033C7.19103 9.3033 9.26924 7.22475 9.26924 4.66998C9.26935 2.11622 7.19103 0.0385742 4.63648 0.0385742Z" fill="#797979"/>
<path d="M26.0189 10.699C23.1969 10.699 21.1108 11.9121 19.8455 13.2906V11.8245C19.8455 11.5128 19.5928 11.26 19.281 11.26H12.5521C12.2402 11.26 11.9875 11.5128 11.9875 11.8245V34.397C11.9875 34.7089 12.2402 34.9615 12.5521 34.9615H19.563C19.8749 34.9615 20.1275 34.7089 20.1275 34.397V23.2289C20.1275 19.4655 21.1498 17.9993 23.7732 17.9993C26.6303 17.9993 26.8574 20.3497 26.8574 23.4225V34.3971C26.8574 34.709 27.11 34.9617 27.4219 34.9617H34.4354C34.7473 34.9617 34.9999 34.709 34.9999 34.3971V22.0157C34.9999 16.4197 33.9329 10.699 26.0189 10.699Z" fill="#797979"/>
</svg>
