<svg width="16" height="16" viewBox="0 0 16 16" fill="none" xmlns="http://www.w3.org/2000/svg">
<path d="M10.9998 10H10.4732L10.2865 9.82002C10.9398 9.06002 11.3332 8.07335 11.3332 7.00002C11.3332 4.60669 9.39317 2.66669 6.99984 2.66669C4.6065 2.66669 2.6665 4.60669 2.6665 7.00002C2.6665 9.39335 4.6065 11.3334 6.99984 11.3334C8.07317 11.3334 9.05984 10.94 9.81984 10.2867L9.99984 10.4734V11L12.3398 13.3334L13.3332 12.34L10.9998 10ZM6.99984 10C5.33984 10 3.99984 8.66002 3.99984 7.00002C3.99984 5.34002 5.33984 4.00002 6.99984 4.00002C8.65984 4.00002 9.99984 5.34002 9.99984 7.00002C9.99984 8.66002 8.65984 10 6.99984 10Z" fill="#AEC4BB"/>
</svg>
