<svg width="42" height="42" viewBox="0 0 42 42" fill="none" xmlns="http://www.w3.org/2000/svg">
<path d="M27.2125 22.75C28.525 22.75 29.68 22.0325 30.275 20.9475L36.54 9.59C37.1875 8.435 36.3475 7 35.0175 7H9.1175L7.4725 3.5H1.75V7H5.25L11.55 20.2825L9.1875 24.5525C7.91 26.8975 9.59 29.75 12.25 29.75H33.25V26.25H12.25L14.175 22.75H27.2125ZM10.78 10.5H32.0425L27.2125 19.25H14.9275L10.78 10.5ZM12.25 31.5C10.325 31.5 8.7675 33.075 8.7675 35C8.7675 36.925 10.325 38.5 12.25 38.5C14.175 38.5 15.75 36.925 15.75 35C15.75 33.075 14.175 31.5 12.25 31.5ZM29.75 31.5C27.825 31.5 26.2675 33.075 26.2675 35C26.2675 36.925 27.825 38.5 29.75 38.5C31.675 38.5 33.25 36.925 33.25 35C33.25 33.075 31.675 31.5 29.75 31.5Z" fill="black"/>
</svg>
