<svg width="744" height="744" viewBox="0 0 744 744" fill="none" xmlns="http://www.w3.org/2000/svg">
<path d="M274.731 471.003H249.612V350.653H230.941L146.055 471.003V491.906H226.76V536.404H249.611V491.906H274.73L274.731 471.003ZM226.761 471.003H168.517L226.761 387.287V471.003ZM392.53 555.074C401.458 547.776 408.154 537.43 412.618 524.038C417.117 510.646 419.349 493.074 419.349 471.285C419.349 452.863 417.967 438.231 415.168 427.389C412.37 416.513 408.543 407.301 403.619 399.755C398.729 392.208 392.494 386.398 384.984 382.395C377.437 378.392 368.687 376.372 358.696 376.372C345.163 376.372 333.932 380.021 325.039 387.284C316.112 394.547 309.38 404.857 304.845 418.247C300.31 431.639 298.078 449.318 298.078 471.284C298.078 506.146 304.207 531.335 316.465 546.781C326.704 559.606 340.77 566.054 358.696 566.054C372.337 566.056 383.603 562.407 392.53 555.074ZM332.267 532.152C325.111 522.055 321.532 501.755 321.532 471.287C321.532 440.782 325.464 419.88 333.329 408.579C339.6 399.686 347.961 395.258 358.449 395.258C369.112 395.258 378.005 400.289 385.161 410.35C392.318 420.376 395.896 440.712 395.896 471.287C395.896 501.684 392.318 521.949 385.161 532.081C378.005 542.213 369.183 547.28 358.696 547.28C348.21 547.279 339.387 542.248 332.267 532.152ZM538.637 471.003V350.653H519.966L435.08 471.003V491.906H515.785V536.404H538.636V491.906H563.755V471.003H538.637ZM515.785 471.003H457.54L515.785 387.287V471.003ZM264.954 617.428C264.954 614.522 262.58 612.185 259.781 612.114H252.057V627.347H256.591V622.741H259.779C262.721 622.565 264.954 620.227 264.954 617.428ZM259.143 619.199H256.592V615.691H259.143C260.136 615.726 260.844 616.471 260.844 617.428C260.843 618.383 260.064 619.199 259.143 619.199ZM269.239 612.114L263.181 627.347H267.716L268.921 624.3H274.2L275.405 627.347H279.939L273.881 612.114H269.239ZM270.16 621.254L271.578 617.746L272.96 621.254H270.16ZM287.698 618.987H295.422V622.034C294.642 625.471 291.525 628.057 287.876 628.057H286.636C282.065 627.986 278.736 624.266 278.736 619.695C278.736 615.267 281.818 611.653 286.636 611.37H287.876C291.029 611.37 293.686 613.284 294.961 615.977L291.099 617.394C290.39 616.155 289.079 615.339 287.556 615.339H286.918C284.615 615.41 282.738 617.323 282.738 619.695C282.738 621.963 284.474 624.019 286.918 624.09H287.556C289.079 624.09 290.39 623.31 291.099 622.034H287.698V618.987ZM296.803 612.114H308.99V615.161H301.303V618.208H307.467V621.255H301.303V624.266H308.99V627.348H296.803V612.114ZM332.161 612.114H336.732V627.347H332.161L326.067 618.632V627.347H321.496V612.114H326.03L332.16 620.864V612.114H332.161ZM346.65 611.369H345.445C340.627 611.653 337.545 615.301 337.545 619.729C337.545 624.3 340.911 628.021 345.445 628.091H346.65C351.468 627.843 354.55 624.122 354.55 619.729C354.445 615.125 351.292 611.44 346.65 611.369ZM346.368 624.124H345.73C343.321 624.052 341.586 621.998 341.586 619.729C341.586 617.357 343.428 615.407 345.73 615.372H346.368C348.777 615.478 350.548 617.428 350.548 619.729C350.548 622.104 348.67 624.054 346.368 624.124ZM354.799 612.114H368.439V615.161H363.904V627.348H359.333V615.161H354.799V612.114ZM381.442 612.114H393.629V615.161H385.976V618.208H392.105V621.255H385.976V627.348H381.442V612.114ZM403.088 611.369H401.883C397.065 611.653 393.983 615.301 393.983 619.729C393.983 624.3 397.348 628.021 401.883 628.091H403.088C407.906 627.843 410.988 624.122 410.988 619.729C410.883 615.125 407.764 611.44 403.088 611.369ZM402.805 624.124H402.168C399.758 624.052 398.022 621.998 398.022 619.729C398.022 617.357 399.864 615.407 402.168 615.372H402.805C405.25 615.478 406.986 617.428 406.986 619.729C406.985 622.104 405.107 624.054 402.805 624.124ZM422.68 612.114H427.251V621.111C427.251 624.938 424.062 628.092 420.2 628.092H419.032C415.206 628.021 412.053 624.938 412.016 621.076V612.114H416.587V621.36C416.658 622.847 417.862 624.052 419.385 624.052H419.882C421.37 624.052 422.645 622.847 422.68 621.36V612.114ZM439.189 612.114H443.76V627.347H439.189L433.095 618.632V627.347H428.524V612.114H433.059L439.188 620.864V612.114H439.189ZM452.05 612.114H444.965V627.347L452.05 627.312C456.302 627.099 459.454 623.734 459.454 619.73C459.455 615.55 456.089 612.184 452.05 612.114ZM451.731 623.521H449.57V615.905H451.731C453.927 616.082 455.487 617.711 455.487 619.73C455.487 621.856 453.786 623.485 451.731 623.521Z" fill="#4F7F6C"/>
<path d="M374.673 239.62V239.692L374.744 239.728V239.799V239.87V239.905V239.977V240.048V240.083V240.154V240.26H374.815V240.403V240.509V240.58V240.651V240.686V240.758V240.829V240.935V241.041V241.183V241.289V241.36V241.466V241.573C374.815 250.713 367.411 258.118 358.27 258.118C349.129 258.118 341.725 250.714 341.725 241.573V241.466V241.36V241.289V241.183V241.041V240.935V240.829V240.758V240.686V240.651V240.58V240.509V240.403V240.26H341.796V240.154V240.083V240.048V239.977V239.905V239.87V239.799V239.728V239.692L341.867 239.62V239.549V239.443V239.372V239.337V239.265V239.194L341.902 239.159V239.088V239.017V238.982V238.91V238.839L341.973 238.804V238.733V238.662V238.555L342.045 238.449V238.307V238.201L342.08 238.094V237.953V237.918L342.151 237.847V237.776V237.741V237.669L342.222 237.563V237.422L342.257 237.316V237.209L342.328 237.068L342.4 236.962V236.821L342.435 236.714V236.608H342.506V236.467L342.647 236.255V236.113L342.682 236.078V236.007C342.753 235.901 342.753 235.76 342.823 235.652L342.858 235.581V235.546L342.929 235.405V235.396C343.034 235.412 343.119 235.416 343.178 235.405C344.099 235.192 339.21 227.433 339.565 225.166C339.671 224.564 339.955 224.032 340.38 223.571C338.36 221.729 336.66 218.222 337.723 216.627C341.868 210.249 346.969 221.835 343.746 224.28C343.993 224.28 344.277 224.174 344.632 223.996C347.43 222.436 344.526 211.419 355.614 207.202C363.902 204.078 372.051 210.629 379.041 210.973C380.487 216.918 380.392 223.015 379.242 228.353C378.782 230.514 378.18 232.499 377.471 234.305C376.691 236.218 375.77 237.919 374.673 239.372V239.443V239.549V239.62ZM420.022 481.489H413.717H413.715C414.069 484.5 414.211 486.272 414.211 486.272H414.212H419.242C419.242 486.272 419.525 484.501 420.022 481.489ZM296.518 481.489C296.872 484.394 297.298 486.272 297.298 486.272H302.329C302.329 486.272 302.506 484.607 302.825 481.489H296.518ZM306.191 346.685C305.198 340.024 304.418 333.328 304.171 326.667C303.887 317.917 304.418 309.237 305.305 300.522H288.016C286.457 308.457 283.551 325.464 284.969 335.206C286.173 343.709 298.113 346.082 306.191 346.685ZM408.719 300.521C409.605 309.237 410.137 317.917 409.817 326.667C409.569 333.186 408.824 339.706 407.868 346.26C415.662 345.941 430.33 344.099 431.676 334.604C433.059 325.109 430.33 308.635 428.772 300.521H408.719Z" fill="#FFD2BB"/>
<path d="M217.229 542.177C217.229 544.871 214.501 547.066 211.1 547.066C207.735 547.066 205.006 544.871 205.006 542.177C205.006 539.45 207.735 537.253 211.1 537.253C214.501 537.253 217.229 539.449 217.229 542.177ZM515.783 471.003V387.287L457.538 471.003H515.783ZM213.474 516.387C213.474 508.699 202.633 502.392 189.312 502.392C176.026 502.392 165.185 508.698 165.185 516.387C165.185 524.073 176.026 530.31 189.312 530.31C202.633 530.31 213.474 524.075 213.474 516.387ZM226.759 471.003V387.287L168.515 471.003H226.759ZM565.206 529.07C562.124 529.07 559.608 531.266 559.608 533.994C559.608 536.723 562.124 538.919 565.206 538.919C568.217 538.919 570.768 536.722 570.768 533.994C570.768 531.267 568.217 529.07 565.206 529.07ZM358.271 258.118C367.413 258.118 374.817 250.713 374.817 241.573V241.466V241.36V241.289V241.183V241.041V240.935V240.829V240.758V240.686V240.651V240.58V240.509V240.403V240.26H374.816V240.403V240.509V240.58V240.651V240.686V240.758V240.829V240.935V241.041V241.183V241.289V241.36V241.466V241.573C374.815 250.713 367.411 258.118 358.271 258.118ZM564.888 447.656C555.355 453.738 546.658 460.074 538.635 466.544V350.653H519.964L435.078 471.003V491.906H510.795C453.916 549.915 435.561 606.897 361.139 585.011C297.412 566.31 284.176 515.813 249.608 494.401V491.906H274.727L274.728 471.003H249.609V350.653H230.938L146.052 471.003V491.906H171.171C73.7825 515.123 70.3892 431.182 111.404 413.822C153.387 396.108 172.837 361.813 173.474 331.062C174.077 300.31 133.298 211.88 208.548 163.911C283.797 115.904 349.764 167.099 349.764 167.099C391.18 182.084 474.472 121.821 472.169 211.172C471 257.21 497.448 266.988 530.4 269.155L530.52 269.84H532.397H543.026H544.974L544.998 269.701C572.392 270.152 601.979 268.398 623.094 278.911C674.503 304.49 670.145 380.59 564.888 447.656ZM423.493 264.136C415.557 242.525 388.278 236.041 377.472 234.305C376.692 236.218 375.771 237.919 374.673 239.372V239.443V239.549V239.62V239.692L374.745 239.728V239.799V239.87V239.905V239.977V240.048V240.083V240.154V240.26H374.743V240.154V240.083V240.048V239.977V239.905V239.87V239.799V239.728L374.672 239.692V239.62V239.549V239.443V239.372C375.769 237.919 376.691 236.218 377.47 234.305C378.179 232.499 378.782 230.514 379.241 228.353C380.391 223.015 380.486 216.918 379.04 210.973C381.402 211.089 383.633 210.499 385.692 208.583C393.947 200.931 386.578 188.531 374.283 182.614C361.99 176.769 361.529 186.123 351.29 186.901C341.902 187.539 338.182 190.267 334.851 197.14C327.623 198.486 328.581 208.406 331.592 220.31C333.536 228.134 337.468 232.238 340.233 234.104C330.351 235.556 301.313 241.699 293.047 264.135C282.949 291.345 284.438 300.52 284.438 300.52H288.016H305.303V300.521H288.015C286.456 308.456 283.551 325.463 284.968 335.205C286.173 343.708 298.111 346.081 306.189 346.683C306.401 348.171 306.649 349.623 306.897 351.075C297.084 355.114 289.822 361.81 288.121 373.041C284.012 400.391 293.613 463.596 296.518 481.488C296.871 484.392 297.297 486.271 297.297 486.271H297.296C297.296 486.271 295.773 489.494 291.132 491.726C288.759 492.931 285.748 490.77 285.57 494.632C285.498 497.094 293.827 495.917 299.123 494.446C301.342 517.532 307.115 534.998 316.464 546.78C326.702 559.605 340.768 566.053 358.694 566.053C372.335 566.055 383.601 562.406 392.528 555.073C401.456 547.775 408.153 537.429 412.616 524.037C415.373 515.831 417.275 506.046 418.337 494.69C423.624 496.037 431.038 496.956 430.97 494.632C430.791 490.77 427.78 492.931 425.407 491.726C420.766 489.494 419.242 486.271 419.242 486.271H419.241C419.241 486.271 419.525 484.5 420.021 481.488C422.926 463.596 432.527 400.392 428.417 373.041C426.575 360.925 418.25 354.051 407.231 350.189C407.444 348.879 407.691 347.57 407.869 346.259C415.663 345.94 430.33 344.098 431.676 334.603C433.058 325.108 430.33 308.634 428.771 300.52H408.719V300.518C408.684 299.987 408.648 299.421 408.578 298.889C408.313 296.39 406.572 294.292 404.403 293.399C406.573 294.292 408.315 296.391 408.58 298.89C408.651 299.421 408.686 299.988 408.721 300.52H428.774H432.104C432.102 300.521 433.59 291.346 423.493 264.136ZM358.447 395.258C347.959 395.258 339.598 399.686 333.328 408.579C325.462 419.88 321.53 440.782 321.53 471.287C321.53 501.755 325.109 522.055 332.265 532.152C339.386 542.248 348.208 547.279 358.694 547.28C369.182 547.28 378.003 542.213 385.159 532.081C392.316 521.949 395.894 501.684 395.894 471.287C395.894 440.712 392.316 420.376 385.159 410.35C378.003 400.289 369.11 395.258 358.447 395.258ZM570.768 500.868C559.608 500.868 550.503 505.615 550.503 511.355C550.503 517.165 559.608 521.912 570.768 521.912C581.893 521.912 590.963 517.165 590.963 511.355C590.963 505.616 581.893 500.868 570.768 500.868Z" fill="#E7F6F5"/>
<path d="M314.02 360.324C315.438 360.324 316.89 360.324 318.307 360.324C331.203 360.324 344.099 360.324 356.96 360.324C370.705 360.324 384.487 360.324 398.234 360.324C398.801 360.324 399.403 360.324 399.97 360.324C402.875 360.324 405.958 357.702 406.559 354.407C406.807 352.99 407.019 351.573 407.233 350.19C407.445 348.881 407.693 347.57 407.87 346.258C408.826 339.704 409.571 333.185 409.819 326.666C410.137 317.916 409.606 309.236 408.72 300.52C408.685 299.988 408.649 299.422 408.579 298.89C408.225 295.559 405.248 292.938 402.131 292.938C387.074 292.938 372.018 292.938 356.96 292.938C341.973 292.938 326.881 292.938 311.894 292.938C308.741 292.938 305.765 295.56 305.482 298.89C305.41 299.421 305.375 299.988 305.304 300.52C304.418 309.236 303.887 317.915 304.17 326.666C304.418 333.326 305.198 340.023 306.19 346.683C306.403 348.171 306.65 349.624 306.899 351.077C307.076 352.174 307.253 353.272 307.43 354.407C308.034 357.703 311.116 360.324 314.02 360.324Z" fill="#979797"/>
<path d="M544.377 247.804H540.125H539.771H535.625H535.484H531.056C527.725 242.702 515.291 221.941 527.796 219.815C529.143 219.603 530.312 219.887 531.303 220.524C531.835 215.351 533.464 211.242 537.078 211.348C541.648 211.525 543.632 215.316 544.199 220.417C545.192 219.849 546.289 219.602 547.6 219.814C560.072 221.941 547.708 242.702 544.377 247.804ZM423.495 264.136C415.559 242.525 388.28 236.041 377.474 234.305C376.694 236.218 375.773 237.919 374.676 239.372V239.443V239.549V239.62V239.692L374.747 239.728V239.799V239.87V239.905V239.976V240.048V240.083V240.154V240.26H374.818V240.403V240.509V240.58V240.651V240.686V240.758V240.829V240.935V241.041V241.183V241.289V241.36V241.466V241.573C374.818 250.713 367.414 258.118 358.273 258.118C349.132 258.118 341.728 250.714 341.728 241.573V241.466V241.36V241.289V241.183V241.041V240.935V240.829V240.758V240.686V240.651V240.58V240.509V240.403V240.26H341.799V240.154V240.083V240.048V239.976V239.905V239.87V239.799V239.728V239.692L341.87 239.62V239.549V239.443V239.372V239.337V239.265V239.194L341.905 239.159V239.088V239.017V238.982V238.91V238.839L341.976 238.804V238.733V238.662V238.555L342.048 238.449V238.307V238.2L342.083 238.094V237.953V237.918L342.154 237.847V237.776V237.741V237.669L342.225 237.563V237.422L342.26 237.316V237.209L342.331 237.068L342.403 236.962V236.821L342.438 236.714V236.608H342.509V236.467L342.65 236.255V236.113L342.685 236.078V236.007C342.756 235.901 342.756 235.76 342.826 235.652L342.861 235.581V235.546L342.933 235.405V235.37V235.298L343.004 235.227V235.192C342.508 234.802 342.048 234.377 341.587 233.916C333.331 234.978 301.729 240.576 293.049 264.136C282.952 291.346 284.44 300.521 284.44 300.521H288.019H305.308C305.379 299.99 305.414 299.424 305.485 298.891C305.769 295.56 308.745 292.939 311.898 292.939C326.885 292.939 341.976 292.939 356.963 292.939C372.02 292.939 387.077 292.939 402.135 292.939C405.253 292.939 408.229 295.562 408.582 298.891C408.654 299.422 408.689 299.99 408.724 300.521H428.776H432.107C432.104 300.521 433.593 291.346 423.495 264.136Z" fill="white"/>
<path d="M302.329 486.272C302.329 486.272 303.746 491.019 303.391 492.579C303.107 494.102 285.465 498.212 285.571 494.633C285.748 490.772 288.759 492.932 291.133 491.728C295.773 489.495 297.297 486.272 297.297 486.272H302.329ZM425.407 491.728C420.766 489.495 419.243 486.272 419.243 486.272H414.212C414.212 486.272 412.795 491.019 413.15 492.579C413.434 494.102 431.076 498.212 430.97 494.633C430.791 490.772 427.78 492.932 425.407 491.728ZM420.021 481.489C422.926 463.598 432.527 400.394 428.418 373.042C426.576 360.926 418.25 354.052 407.232 350.19C407.019 351.573 406.807 352.99 406.558 354.407C405.956 357.702 402.874 360.324 399.969 360.324C399.402 360.324 398.801 360.324 398.233 360.324C384.487 360.324 370.706 360.324 356.959 360.324C344.098 360.324 331.202 360.324 318.306 360.324C316.889 360.324 315.437 360.324 314.019 360.324C311.115 360.324 308.032 357.702 307.43 354.407C307.253 353.274 307.077 352.175 306.899 351.076C297.085 355.115 289.823 361.811 288.122 373.042C284.012 400.392 293.613 463.598 296.518 481.489H302.825C304.773 463.243 312.248 399.011 322.417 393.45C330.07 389.233 347.181 386.152 358.271 384.486C369.36 386.152 386.472 389.233 394.125 393.45C404.292 399.011 411.769 463.243 413.717 481.489H420.021ZM343.178 235.405C344.099 235.192 339.21 227.433 339.565 225.166C339.671 224.563 339.955 224.032 340.38 223.571C338.36 221.729 336.66 218.222 337.723 216.627C341.868 210.249 346.969 221.835 343.745 224.28C343.993 224.28 344.277 224.174 344.632 223.996C347.43 222.436 344.525 211.419 355.614 207.202C366.702 203.021 377.543 216.166 385.692 208.583C393.947 200.93 386.578 188.531 374.284 182.614C361.99 176.769 361.529 186.122 351.291 186.901C341.902 187.538 338.182 190.267 334.852 197.14C327.624 198.486 328.581 208.406 331.592 220.31C334.568 232.286 342.221 235.581 343.178 235.405ZM543.029 247.804H532.4H526.661L530.523 269.84H532.4H543.029H544.977L548.839 247.804H543.029Z" fill="black"/>
</svg>
