<svg width="35" height="35" viewBox="0 0 35 35" fill="none" xmlns="http://www.w3.org/2000/svg">
<path d="M24.5733 0H10.4267C4.67739 0 0 4.67739 0 10.4267V24.5733C0 30.3226 4.67739 35 10.4267 35H24.5733C30.3226 35 35 30.3226 35 24.5733V10.4267C34.9999 4.67739 30.3225 0 24.5733 0ZM31.479 24.5733C31.479 28.3872 28.3872 31.479 24.5733 31.479H10.4267C6.61281 31.479 3.521 28.3872 3.521 24.5733V10.4267C3.521 6.61275 6.61281 3.521 10.4267 3.521H24.5733C28.3872 3.521 31.479 6.61275 31.479 10.4267V24.5733Z" fill="#797979"/>
<path d="M17.5 8.44775C12.5086 8.44775 8.44775 12.5086 8.44775 17.4999C8.44775 22.4913 12.5086 26.5522 17.5 26.5522C22.4914 26.5522 26.5522 22.4913 26.5522 17.4999C26.5522 12.5085 22.4914 8.44775 17.5 8.44775ZM17.5 23.0312C14.4452 23.0312 11.9688 20.5548 11.9688 17.5C11.9688 14.4451 14.4452 11.9688 17.5 11.9688C20.5548 11.9688 23.0312 14.4451 23.0312 17.5C23.0312 20.5548 20.5548 23.0312 17.5 23.0312Z" fill="#797979"/>
<path d="M26.5696 10.685C27.7675 10.685 28.7386 9.71389 28.7386 8.51596C28.7386 7.31804 27.7675 6.34692 26.5696 6.34692C25.3716 6.34692 24.4005 7.31804 24.4005 8.51596C24.4005 9.71389 25.3716 10.685 26.5696 10.685Z" fill="#797979"/>
</svg>
