<svg width="26" height="26" viewBox="0 0 26 26" fill="none" xmlns="http://www.w3.org/2000/svg">
<g clip-path="url(#clip0_254_7854)">
<path d="M13.3961 25.1998C20.2531 25.1998 25.8118 19.6412 25.8118 12.7842C25.8118 5.9273 20.2531 0.368652 13.3961 0.368652C6.53915 0.368652 0.980469 5.9273 0.980469 12.7842C0.980469 19.6412 6.53915 25.1998 13.3961 25.1998Z" fill="#1977F3"/>
<path d="M18.2296 16.3747L18.7796 12.785H15.3365V10.4558C15.3365 9.47458 15.8167 8.51604 17.3601 8.51604H18.9263V5.46059C18.9263 5.46059 17.505 5.2179 16.1467 5.2179C13.3112 5.2179 11.457 6.93594 11.457 10.049V12.785H8.30371V16.3747H11.457V25.0504C12.089 25.15 12.7368 25.2006 13.3967 25.2006C14.0567 25.2006 14.7045 25.1482 15.3365 25.0504V16.3747H18.2296Z" fill="white"/>
</g>
<defs>
<clipPath id="clip0_254_7854">
<rect width="24.8313" height="24.8313" fill="white" transform="translate(0.980469 0.367554)"/>
</clipPath>
</defs>
</svg>
