<svg width="21" height="20" viewBox="0 0 21 20" fill="none" xmlns="http://www.w3.org/2000/svg">
<g clip-path="url(#clip0_307_3719)">
<path d="M10.4819 20.0011C16.0048 20.0011 20.4819 15.524 20.4819 10.0012C20.4819 4.47835 16.0048 0.0012207 10.4819 0.0012207C4.95909 0.0012207 0.481934 4.47835 0.481934 10.0012C0.481934 15.524 4.95909 20.0011 10.4819 20.0011Z" fill="#1977F3"/>
<path d="M14.3748 12.8928L14.8178 10.0015H12.0446V8.12554C12.0446 7.33522 12.4313 6.56318 13.6745 6.56318H14.9359V4.10221C14.9359 4.10221 13.7912 3.90674 12.6971 3.90674C10.4133 3.90674 8.91985 5.29051 8.91985 7.79788V10.0015H6.38013V12.8928H8.91985V19.8805C9.42892 19.9607 9.95065 20.0015 10.4822 20.0015C11.0138 20.0015 11.5355 19.9593 12.0446 19.8805V12.8928H14.3748Z" fill="white"/>
</g>
<defs>
<clipPath id="clip0_307_3719">
<rect width="20" height="20" fill="white" transform="translate(0.481934)"/>
</clipPath>
</defs>
</svg>
