<svg width="35" height="35" viewBox="0 0 35 35" fill="none" xmlns="http://www.w3.org/2000/svg">
<path d="M9.22455 18.641H13.0611V34.4355C13.0611 34.7473 13.3138 35 13.6256 35H20.1307C20.4425 35 20.6952 34.7473 20.6952 34.4355V18.7154H25.1056C25.3924 18.7154 25.6337 18.5002 25.6664 18.2154L26.3363 12.4006C26.3547 12.2406 26.304 12.0804 26.197 11.9604C26.0898 11.8403 25.9365 11.7715 25.7756 11.7715H20.6954V8.12655C20.6954 7.02777 21.287 6.4706 22.454 6.4706C22.6203 6.4706 25.7756 6.4706 25.7756 6.4706C26.0874 6.4706 26.3401 6.21781 26.3401 5.90608V0.568694C26.3401 0.256855 26.0874 0.00417742 25.7756 0.00417742H21.1979C21.1656 0.00259677 21.094 0 20.9883 0C20.194 0 17.4332 0.155919 15.2523 2.16221C12.836 4.3855 13.1719 7.04753 13.2521 7.50908V11.7714H9.22455C8.91271 11.7714 8.66003 12.0241 8.66003 12.3359V18.0764C8.66003 18.3882 8.91271 18.641 9.22455 18.641Z" fill="#797979"/>
</svg>
