<svg width="21" height="20" viewBox="0 0 21 20" fill="none" xmlns="http://www.w3.org/2000/svg">
<g clip-path="url(#clip0_307_3711)">
<path d="M20.7703 10.2249C20.7703 9.56659 20.712 8.94159 20.612 8.33325H11.1953V12.0916H16.587C16.3453 13.3249 15.637 14.3666 14.587 15.0749V17.5749H17.8036C19.687 15.8333 20.7703 13.2666 20.7703 10.2249Z" fill="#4285F4"/>
<path d="M11.1958 20.0001C13.8958 20.0001 16.1541 19.1001 17.8041 17.5751L14.5874 15.0751C13.6874 15.6751 12.5458 16.0418 11.1958 16.0418C8.58742 16.0418 6.37909 14.2834 5.58742 11.9084H2.27075V14.4834C3.91242 17.7501 7.28742 20.0001 11.1958 20.0001Z" fill="#34A853"/>
<path d="M5.5871 11.9083C5.37877 11.3083 5.27043 10.6666 5.27043 9.99993C5.27043 9.33327 5.3871 8.6916 5.5871 8.0916V5.5166H2.27043C1.5871 6.8666 1.19543 8.38327 1.19543 9.99993C1.19543 11.6166 1.5871 13.1333 2.27043 14.4833L5.5871 11.9083Z" fill="#FBBC05"/>
<path d="M11.1958 3.95833C12.6708 3.95833 13.9874 4.46667 15.0291 5.45834L17.8791 2.60833C16.1541 0.991668 13.8958 0 11.1958 0C7.28742 0 3.91242 2.25 2.27075 5.51667L5.58742 8.09167C6.37909 5.71667 8.58742 3.95833 11.1958 3.95833Z" fill="#EA4335"/>
</g>
<defs>
<clipPath id="clip0_307_3711">
<rect width="20" height="20" fill="white" transform="translate(0.981934)"/>
</clipPath>
</defs>
</svg>
