<svg width="32" height="32" viewBox="0 0 32 32" fill="none" xmlns="http://www.w3.org/2000/svg">
<path d="M24 21.44C22.9867 21.44 22.08 21.84 21.3867 22.4667L11.88 16.9334C11.9467 16.6267 12 16.32 12 16C12 15.68 11.9467 15.3734 11.88 15.0667L21.28 9.58669C22 10.2534 22.9467 10.6667 24 10.6667C26.2133 10.6667 28 8.88002 28 6.66669C28 4.45335 26.2133 2.66669 24 2.66669C21.7867 2.66669 20 4.45335 20 6.66669C20 6.98669 20.0533 7.29335 20.12 7.60002L10.72 13.08C10 12.4134 9.05333 12 8 12C5.78667 12 4 13.7867 4 16C4 18.2134 5.78667 20 8 20C9.05333 20 10 19.5867 10.72 18.92L20.2133 24.4667C20.1467 24.7467 20.1067 25.04 20.1067 25.3334C20.1067 27.48 21.8533 29.2267 24 29.2267C26.1467 29.2267 27.8933 27.48 27.8933 25.3334C27.8933 23.1867 26.1467 21.44 24 21.44ZM24 5.33335C24.7333 5.33335 25.3333 5.93335 25.3333 6.66669C25.3333 7.40002 24.7333 8.00002 24 8.00002C23.2667 8.00002 22.6667 7.40002 22.6667 6.66669C22.6667 5.93335 23.2667 5.33335 24 5.33335ZM8 17.3334C7.26667 17.3334 6.66667 16.7334 6.66667 16C6.66667 15.2667 7.26667 14.6667 8 14.6667C8.73333 14.6667 9.33333 15.2667 9.33333 16C9.33333 16.7334 8.73333 17.3334 8 17.3334ZM24 26.6934C23.2667 26.6934 22.6667 26.0934 22.6667 25.36C22.6667 24.6267 23.2667 24.0267 24 24.0267C24.7333 24.0267 25.3333 24.6267 25.3333 25.36C25.3333 26.0934 24.7333 26.6934 24 26.6934Z" fill="#878787"/>
</svg>
