<svg width="32" height="32" viewBox="0 0 32 32" fill="none" xmlns="http://www.w3.org/2000/svg">
<path d="M20.7333 17.3333C21.7333 17.3333 22.6132 16.7866 23.0666 15.96L27.8399 7.30663C28.3333 6.42663 27.6933 5.33329 26.6799 5.33329H6.94659L5.69325 2.66663H1.33325V5.33329H3.99992L8.79992 15.4533L6.99992 18.7066C6.02659 20.4933 7.30658 22.6666 9.33325 22.6666H25.3333V20H9.33325L10.7999 17.3333H20.7333ZM8.21325 7.99996H24.4132L20.7333 14.6666H11.3733L8.21325 7.99996ZM9.33325 24C7.86658 24 6.67992 25.2 6.67992 26.6666C6.67992 28.1333 7.86658 29.3333 9.33325 29.3333C10.7999 29.3333 11.9999 28.1333 11.9999 26.6666C11.9999 25.2 10.7999 24 9.33325 24ZM22.6666 24C21.1999 24 20.0133 25.2 20.0133 26.6666C20.0133 28.1333 21.1999 29.3333 22.6666 29.3333C24.1333 29.3333 25.3333 28.1333 25.3333 26.6666C25.3333 25.2 24.1333 24 22.6666 24Z" fill="#878787"/>
</svg>
