<svg width="35" height="35" viewBox="0 0 35 35" fill="none" xmlns="http://www.w3.org/2000/svg">
<g clip-path="url(#clip0_1262_4653)">
<path d="M34.2066 6.42501C33.6568 6.66683 33.0915 6.87093 32.5139 7.03662C33.1977 6.26973 33.7191 5.36738 34.0374 4.37994C34.1087 4.1586 34.0348 3.91633 33.8513 3.77158C33.6681 3.62671 33.4135 3.60936 33.2117 3.72792C31.985 4.44935 30.6616 4.96781 29.2739 5.27098C27.876 3.91656 25.9775 3.14575 24.0147 3.14575C19.8718 3.14575 16.5012 6.48793 16.5012 10.596C16.5012 10.9195 16.5218 11.2413 16.5627 11.5586C11.4216 11.111 6.6421 8.60532 3.36001 4.61314C3.24304 4.47084 3.06284 4.39416 2.87836 4.40882C2.69376 4.42315 2.52791 4.52637 2.43465 4.68501C1.76897 5.81766 1.41705 7.11308 1.41705 8.43112C1.41705 10.2263 2.06342 11.9296 3.20521 13.2605C2.85804 13.1413 2.52113 12.9923 2.19959 12.8153C2.02696 12.72 1.81628 12.7214 1.64478 12.819C1.47317 12.9165 1.36557 13.0958 1.36105 13.2919C1.36026 13.3249 1.36026 13.3579 1.36026 13.3914C1.36026 16.071 2.81468 18.4835 5.03831 19.7984C4.84728 19.7795 4.65636 19.7521 4.46668 19.7161C4.27113 19.6791 4.07005 19.747 3.93818 19.8949C3.80609 20.0427 3.76239 20.2487 3.82325 20.4368C4.64631 22.9849 6.76539 24.8591 9.32717 25.4305C7.20244 26.7501 4.77265 27.4413 2.22194 27.4413C1.68972 27.4413 1.15444 27.4103 0.63057 27.3489C0.370328 27.3182 0.121489 27.4705 0.0328604 27.716C-0.0557686 27.9615 0.0381669 28.2352 0.25957 28.3759C3.53636 30.4593 7.32528 31.5605 11.2165 31.5605C18.8661 31.5605 23.6515 27.9835 26.3189 24.9828C29.645 21.2412 31.5526 16.2886 31.5526 11.3952C31.5526 11.1908 31.5495 10.9844 31.5431 10.7786C32.8554 9.7982 33.9852 8.6117 34.9046 7.24799C35.0443 7.04087 35.0291 6.76714 34.8673 6.57648C34.7058 6.38571 34.4365 6.32403 34.2066 6.42501Z" fill="#13A89E"/>
</g>
<defs>
<clipPath id="clip0_1262_4653">
<rect width="35" height="34.7059" fill="white"/>
</clipPath>
</defs>
</svg>
